<svg width="251" height="251" viewBox="0 0 251 251" fill="none" xmlns="http://www.w3.org/2000/svg">
<path d="M88.0116 199.572C84.7253 200.523 81.319 201.583 77.763 202.751L91.0112 207.751L88.0116 199.572Z" fill="#00afff"/>
<path d="M171.75 202.751C167.557 201.313 163.573 200.047 159.752 198.951L157.502 207.751L171.75 202.751Z" fill="#00afff"/>
<path d="M178.499 188.502C146.503 169.004 89.7614 175.504 69.2642 188.502L72.2463 193.502L77.763 202.751C81.319 201.583 84.7253 200.523 88.0116 199.572C114.53 191.898 133.237 191.346 159.752 198.951C163.573 200.047 167.557 201.313 171.75 202.751L176.131 193.502L178.499 188.502Z" fill="#00afff"/>
<path d="M176.131 193.502L171.75 202.751L157.502 207.751C165.898 209.283 169.265 210.742 177.249 215L186.748 198.951C183.203 196.147 181.196 194.431 176.131 193.502Z" fill="#00afff"/>
<path d="M77.763 202.751L72.2463 193.502C69.2783 194.554 67.2321 195.433 65.0148 196.806C63.9316 197.477 62.8076 198.266 61.5153 199.251L70.514 215C78.1748 210.63 82.7514 209.44 91.0112 207.751L77.763 202.751Z" fill="#00afff"/>
<path d="M79.0128 165.379C45.2557 119.003 79.0128 67.7471 127.237 67.7471C175.461 67.7471 203.448 125.011 170.75 166.004L185.998 178.503L193.247 168.504L205.995 171.004L212.744 154.006L202.246 146.006C203.721 141.017 204.22 138.103 203.995 132.508L216.994 127.758C217.058 120.551 216.653 116.755 214.994 110.51L201.496 108.51C200.709 103.576 199.746 100.784 197.246 95.7609L206.495 86.2617C203.676 80.3331 201.423 77.0537 196.496 71.2631L184.498 75.7627C180.948 71.9318 178.823 69.7618 174.25 65.7636L177.499 53.2647C172.391 49.2053 169.121 47.1236 161.501 44.2655L151.503 54.0146C146.809 51.6901 143.834 50.7257 137.755 49.765L134.755 36.7662C127.646 35.7655 123.702 35.7239 116.758 36.7662L112.758 49.515C107.471 50.0917 104.642 51.029 98.7601 53.5146L89.5114 43.2656C82.4901 46.2057 79.005 48.5307 73.0137 53.0147L76.7632 65.2636C73.3247 67.0398 66.4237 74.1235 66.2646 75.2627C66.237 75.4607 58.3491 71.3464 54.5163 69.5132C49.2683 74.4903 46.8299 77.9136 43.2678 85.0118L52.7665 95.0109C49.937 100.271 48.7976 103.224 48.0172 108.51L34.5191 110.01C33.0827 117.05 32.6623 121.033 33.2692 128.258L46.2674 132.258C45.5556 138.289 45.7861 141.427 47.5173 146.506L36.7688 153.756C38.6089 161.274 40.0149 165.017 43.2678 170.754L57.2659 169.004C59.7186 173.638 61.7134 176.037 65.0148 179.253L80.2627 166.754L79.0128 165.379Z" fill="#00afff"/>
<path d="M171.75 202.751L176.131 193.502M171.75 202.751C167.557 201.313 163.573 200.047 159.752 198.951M171.75 202.751L157.502 207.751M77.763 202.751L72.2463 193.502M77.763 202.751C81.319 201.583 84.7253 200.523 88.0116 199.572M77.763 202.751L91.0112 207.751M72.2463 193.502L69.2642 188.502C89.7614 175.504 146.503 169.004 178.499 188.502L176.131 193.502M72.2463 193.502C69.2783 194.554 67.2321 195.433 65.0148 196.806C63.9316 197.477 62.8076 198.266 61.5153 199.251L70.514 215C78.1748 210.63 82.7514 209.44 91.0112 207.751M91.0112 207.751L88.0116 199.572M88.0116 199.572C114.53 191.898 133.237 191.346 159.752 198.951M176.131 193.502C181.196 194.431 183.203 196.147 186.748 198.951L177.249 215C169.265 210.742 165.898 209.283 157.502 207.751M157.502 207.751L159.752 198.951M79.0128 165.379C45.2557 119.003 79.0128 67.7471 127.237 67.7471C175.461 67.7471 203.448 125.011 170.75 166.004L185.998 178.503L193.247 168.504L205.995 171.004L212.744 154.006L202.246 146.006C203.721 141.017 204.22 138.103 203.995 132.508L216.994 127.758C217.058 120.551 216.653 116.755 214.994 110.51L201.496 108.51C200.709 103.576 199.746 100.784 197.246 95.7609L206.495 86.2617C203.676 80.3331 201.423 77.0537 196.496 71.2631L184.498 75.7627C180.948 71.9318 178.823 69.7618 174.25 65.7636L177.499 53.2647C172.391 49.2053 169.121 47.1236 161.501 44.2655L151.503 54.0146C146.809 51.6901 143.834 50.7257 137.755 49.765L134.755 36.7662C127.646 35.7655 123.702 35.7239 116.758 36.7662L112.758 49.515C107.471 50.0917 104.642 51.029 98.7601 53.5146L89.5114 43.2656C82.4901 46.2057 79.005 48.5307 73.0137 53.0147L76.7632 65.2636C73.3247 67.0398 66.4237 74.1235 66.2646 75.2627C66.237 75.4607 58.3491 71.3464 54.5163 69.5132C49.2683 74.4903 46.8299 77.9136 43.2678 85.0118L52.7665 95.0109C49.937 100.271 48.7976 103.224 48.0172 108.51L34.5191 110.01C33.0827 117.05 32.6623 121.033 33.2692 128.258L46.2674 132.258C45.5556 138.289 45.7861 141.427 47.5173 146.506L36.7688 153.756C38.6089 161.274 40.0149 165.017 43.2678 170.754L57.2659 169.004C59.7186 173.638 61.7134 176.037 65.0148 179.253L80.2627 166.754L79.0128 165.379Z" stroke="black" stroke-width="2.5"/>
<path d="M121.988 140.241C122.169 132.673 122.151 130.721 123.507 127.651C122.753 127.477 122.087 127.293 121.488 127.091C118.969 126.24 117.64 125.052 116.046 122.742C115.157 123.245 114.306 123.669 113.489 124.017C112.799 124.311 112.133 124.551 111.489 124.738C110.71 124.965 109.961 125.115 109.239 125.192C108.461 125.274 107.713 125.272 106.99 125.188C106.302 125.108 105.637 124.954 104.99 124.73C104.264 124.479 103.56 124.14 102.871 123.717C101.276 122.737 99.7622 121.309 98.2409 119.492C101.784 116.493 102.984 112.966 105.85 111.211C102.938 110.649 100.654 109.332 98.7408 106.994C96.7019 101.901 95.2904 98.6606 92.7416 96.7445C97.2482 93.2799 99.4127 95.3747 100.888 97.2444C100.12 94.6133 99.21 92.0605 97.491 89.7451C99.6648 88.5951 101.518 89.3589 105.85 92.9948C105.527 89.1187 105.162 85.6245 103.99 84.7456C107.311 84.8227 109.669 86.3169 112.72 89.2452C113.243 84.6524 113.822 80.6892 113.164 80.2767C113.106 80.2664 113.048 80.2561 112.989 80.246C113.055 80.2343 113.113 80.2449 113.164 80.2767C117.521 81.0579 119.164 82.4961 121.237 85.9955C123.158 81.7713 125.487 78.4961 125.487 78.4961C125.487 78.4961 127.966 82.0227 129.696 85.9955C133.311 82.8944 134.486 81.2459 137.735 81.2459C136.875 83.6139 136.732 86.2715 136.785 89.2452C140.752 86.4838 140.985 85.9955 144.234 85.9955C143.023 87.8134 142.751 90.3364 142.621 92.9948C146.087 90.7312 148.389 90.2606 151.233 90.995C148.111 95.3095 148.394 94.4809 147.234 98.7228C151.596 96.3724 153.483 95.9946 155.983 97.2444C155.983 97.2444 150.615 103.244 149.234 106.994C148.229 109.722 145.621 110.994 142.485 111.444C146.938 114.627 146.334 119.891 152.733 120.242C151.894 121.922 150.416 123.545 148.527 124.742C147.744 125.238 146.892 125.66 145.984 125.984C145.421 126.185 144.836 126.347 144.234 126.465C143.562 126.597 142.867 126.674 142.157 126.686C141.404 126.698 140.634 126.638 139.851 126.496C139.072 126.354 138.281 126.13 137.485 125.813C136.407 125.384 135.318 124.786 134.236 123.992C133.27 125.053 132.428 125.814 131.486 126.376C130.811 126.778 130.084 127.078 129.223 127.311C128.576 127.487 127.852 127.624 127.018 127.74L127.02 127.773C125.59 133.337 125.443 136.053 126.215 141.24C134.986 136.991 140.485 143.74 147.484 141.99L155.233 155.489C153.733 157.989 154.001 160.184 155.483 162.239H128.737C126.144 164.278 123.906 164.775 120.488 162.489L93.9915 162.239C94.9913 160.239 94.0597 157.99 92.2417 155.739L103.24 141.49C113.489 142.49 113.489 139.991 121.988 140.241Z" fill="#00afff"/>
<path d="M64.7648 197.252L73.2637 213.25M68.0144 195.752L76.5132 212.25M71.2639 195.002L79.0129 211.25M79.7627 204.251L81.7625 210.25M83.7622 205.501L84.5121 209.251M163.751 209.001L164.251 205.251M166.001 209.75L168.5 204.251M168.5 210.75L176.249 194.252M179.749 195.752C179.549 196.152 174.166 206.751 171.5 212M174.5 213.5L182.748 197.252M123.507 127.651C122.151 130.721 122.169 132.673 121.988 140.241M123.507 127.651C122.753 127.477 122.087 127.293 121.488 127.091M123.507 127.651C123.675 127.657 123.835 127.663 123.987 127.668M127.02 127.773C125.59 133.337 125.443 136.053 126.215 141.24M127.02 127.773L127.018 127.74C127.852 127.624 128.576 127.487 129.223 127.311M127.02 127.773C126.926 127.77 126.835 127.767 126.746 127.764M121.988 140.241C123.155 141.467 123.765 141.991 124.737 142.49M121.988 140.241C113.489 139.991 113.489 142.49 103.24 141.49L92.2417 155.739C94.0597 157.99 94.9913 160.239 93.9915 162.239L120.488 162.489M126.215 141.24C125.506 141.568 125.206 141.87 124.737 142.49M126.215 141.24C134.986 136.991 140.485 143.74 147.484 141.99L155.233 155.489C153.733 157.989 154.001 160.184 155.483 162.239H128.737M125.487 109.243C120.738 109.243 118.738 101.744 118.738 95.4946C118.738 92.3974 119.887 88.9624 121.237 85.9955M125.487 109.243C129.986 109.243 131.736 101.494 131.736 95.4946C131.736 92.2411 131.041 89.0826 129.696 85.9955M125.487 109.243C132.786 109.284 135.629 107.683 136.985 99.9942C137.125 96.0218 136.841 92.4499 136.785 89.2452M125.487 109.243C129.009 111.257 138.666 110.962 141.735 101.244C142.507 98.7972 142.484 95.8196 142.621 92.9948M125.487 109.243C129.986 111.243 143.223 112.956 145.984 102.744C146.413 101.157 146.938 99.8051 147.234 98.7228M125.487 109.243C121.982 110.782 113.79 106.862 112.239 99.9942C110.688 93.1264 112.301 92.9248 112.72 89.2452M125.487 109.243C120.506 111.273 107.219 111.223 106.74 100.994C106.628 98.6204 106.078 95.733 105.85 92.9948M125.487 109.243C114.533 112.439 105.441 111.598 102.49 102.744C101.878 100.908 101.417 99.0577 100.888 97.2444M125.487 109.243C116.67 111.092 110.469 112.102 105.85 111.211M125.487 109.243C119.231 110.518 116.854 112.083 115.488 117.743M125.487 109.243C125.487 109.243 135.354 112.466 142.485 111.444M125.487 109.243C132.013 111.294 135.764 111.788 134.986 119.992M129.696 85.9955C127.966 82.0227 125.487 78.4961 125.487 78.4961C125.487 78.4961 123.158 81.7713 121.237 85.9955M129.696 85.9955C133.311 82.8944 134.486 81.2459 137.735 81.2459C136.875 83.6139 136.732 86.2715 136.785 89.2452M136.785 89.2452C140.752 86.4838 140.985 85.9955 144.234 85.9955C143.023 87.8134 142.751 90.3364 142.621 92.9948M142.621 92.9948C146.087 90.7312 148.389 90.2606 151.233 90.995C148.111 95.3095 148.394 94.4809 147.234 98.7228M147.234 98.7228C151.596 96.3724 153.483 95.9946 155.983 97.2444C155.983 97.2444 150.615 103.244 149.234 106.994C148.229 109.722 145.621 110.994 142.485 111.444M121.237 85.9955C119.136 82.4497 117.477 81.0201 112.989 80.246C113.912 80.082 113.283 84.2984 112.72 89.2452M112.72 89.2452C109.669 86.3169 107.311 84.8227 103.99 84.7456C105.162 85.6245 105.527 89.1187 105.85 92.9948M105.85 92.9948C101.518 89.3589 99.6648 88.5951 97.491 89.7451C99.21 92.0605 100.12 94.6133 100.888 97.2444M100.888 97.2444C99.4127 95.3747 97.2482 93.2799 92.7416 96.7445C95.2904 98.6606 96.7019 101.901 98.7408 106.994C100.654 109.332 102.938 110.649 105.85 111.211M105.85 111.211C102.984 112.966 101.784 116.493 98.2409 119.492M98.2409 119.492C99.6202 120.182 101.204 120.564 102.871 120.7M98.2409 119.492C99.7622 121.309 101.276 122.737 102.871 123.717M115.488 117.743L116.046 122.742M115.488 117.743C116.704 119.558 117.786 120.771 118.988 121.444M115.488 117.743C114.874 118.108 114.203 118.452 113.489 118.768M142.485 111.444C146.938 114.627 146.334 119.891 152.733 120.242M152.733 120.242C151.894 121.922 150.416 123.545 148.527 124.742M152.733 120.242C151.93 121.174 150.392 121.946 148.527 122.454M134.986 119.992L134.236 123.992M134.986 119.992C133.747 120.8 132.601 121.38 131.486 121.722M134.986 119.992C135.612 120.821 136.474 121.465 137.485 121.948M116.046 122.742C117.64 125.052 118.969 126.24 121.488 127.091M116.046 122.742C115.157 123.245 114.306 123.669 113.489 124.017M134.236 123.992C133.27 125.053 132.428 125.814 131.486 126.376M134.236 123.992C135.318 124.786 136.407 125.384 137.485 125.813M118.988 125.742V121.444M118.988 121.444C119.751 121.871 120.563 122.081 121.488 122.088M121.488 122.088V127.091M121.488 122.088C122.235 122.094 123.057 121.967 123.987 121.717M123.987 127.668V121.717M123.987 127.668C124.992 127.703 125.699 127.728 126.746 127.764M123.987 121.717C124.458 121.59 124.956 121.431 125.487 121.242C125.916 121.433 126.334 121.591 126.746 121.717M126.746 121.717V127.764M126.746 121.717C127.593 121.975 128.411 122.098 129.223 122.088M129.223 122.088V127.311M129.223 122.088C129.975 122.079 130.723 121.956 131.486 121.722M129.223 127.311C130.084 127.078 130.811 126.778 131.486 126.376M131.486 126.376V121.722M137.485 121.948V125.813M137.485 121.948C138.208 122.292 139.007 122.555 139.851 122.742M137.485 125.813C138.281 126.13 139.072 126.354 139.851 126.496M139.851 122.742V126.496M139.851 122.742C140.592 122.907 141.368 123.014 142.157 123.069M139.851 126.496C140.634 126.638 141.404 126.698 142.157 126.686M142.157 126.686V123.069M142.157 126.686C142.867 126.674 143.562 126.597 144.234 126.465M142.157 123.069C142.844 123.117 143.541 123.126 144.234 123.099M144.234 123.099V126.465M144.234 123.099C144.824 123.075 145.41 123.026 145.984 122.953M144.234 126.465C144.836 126.347 145.421 126.185 145.984 125.984M145.984 125.984V122.953M145.984 125.984C146.892 125.66 147.744 125.238 148.527 124.742M145.984 122.953C146.87 122.841 147.728 122.672 148.527 122.454M148.527 124.742V122.454M113.489 124.017V118.768M113.489 124.017C112.799 124.311 112.133 124.551 111.489 124.738M113.489 118.768C112.853 119.049 112.183 119.308 111.489 119.54M111.489 119.54V124.738M111.489 119.54C110.761 119.783 110.008 119.995 109.239 120.172M111.489 124.738C109.869 125.209 108.383 125.35 106.99 125.188M109.239 120.172V125.242M109.239 120.172C108.499 120.342 107.746 120.479 106.99 120.577M106.99 125.188V120.577M106.99 125.188C106.302 125.108 105.637 124.954 104.99 124.73M106.99 120.577C106.323 120.664 105.654 120.72 104.99 120.744M104.99 120.744V124.73M104.99 120.744C104.275 120.769 103.566 120.756 102.871 120.7M104.99 124.73C104.264 124.479 103.56 124.14 102.871 123.717M102.871 120.7V123.717M124.737 142.49V155.489M120.488 162.489C123.906 164.775 126.144 164.278 128.737 162.239M120.488 162.489C121.787 158.574 122.699 156.983 124.737 155.489M128.737 162.239C127.319 158.365 126.688 156.849 124.737 155.489" stroke="black" stroke-width="1.25"/>
<path d="M101.341 186.753L100.76 184.697C101.641 184.543 103.509 184.268 103.509 184.268C103.509 184.268 105.533 184.001 106.643 183.875L107.009 186.753C107.009 186.753 106.993 186.753 106.964 186.754C106.675 186.764 105.046 186.828 103.971 187.006C104.05 187.587 104.086 188.024 104.009 188.002C103.787 187.94 103.01 187.878 103.01 187.378C103.01 187.218 103.416 187.097 103.971 187.006C103.82 185.899 103.509 184.268 103.509 184.268C103.509 184.268 101.641 184.543 100.76 184.697L101.341 186.753L101.26 186.503V186.753L98.5512 187.378L98.7601 188.002C98.7601 188.002 99.26 188.252 98.2602 188.252C97.2603 188.252 98.0102 187.502 98.0102 187.502L98.5512 187.378L101.26 186.753V186.503L101.341 186.753Z" fill="#00afff"/>
<path d="M113.758 185.753C113.508 184.697 113.508 183.155 113.508 183.155C114.741 183.037 115.897 182.939 117.008 182.859C118.125 182.779 119.197 182.717 120.257 182.671C121.258 182.628 122.249 182.6 123.257 182.585C124.231 182.571 125.223 182.569 126.256 182.578C127.06 182.585 127.889 182.599 128.756 182.62V185.753V186.503C128.756 187.253 127.256 185.753 128.006 185.753H128.756V182.62C127.889 182.599 127.06 182.585 126.256 182.578V185.753H123.257V186.503C123.257 187.003 122.007 185.753 122.507 185.753H123.257V182.585C122.249 182.6 121.258 182.628 120.257 182.671C120.257 182.671 120.507 184.753 120.257 185.253C120.101 185.564 119.363 185.585 118.89 185.495C118.603 185.441 118.413 185.347 118.507 185.253C118.56 185.2 118.7 185.302 118.89 185.495C119.363 185.585 120.101 185.564 120.257 185.253C120.507 184.753 120.257 182.671 120.257 182.671C119.197 182.717 118.125 182.779 117.008 182.859V186.003C115.641 186.673 114.008 186.809 113.758 185.753Z" fill="#00afff"/>
<path d="M143.254 183.884C143.254 183.884 143.254 183.884 143.254 183.884C143.422 183.898 143.589 183.912 143.754 183.927C143.922 183.942 144.089 183.957 144.254 183.973C144.736 184.019 145.205 184.068 145.664 184.12C145.696 184.088 145.726 184.09 145.754 184.131C145.837 184.14 145.92 184.15 146.003 184.16C147.312 184.317 148.541 184.505 149.753 184.735C150.558 184.888 151.356 185.059 152.166 185.253C153.165 185.491 154.182 185.764 155.252 186.076C155.252 186.076 154.911 187.751 154.688 188.993C154.582 189.592 154.502 190.09 154.502 190.252C154.502 190.752 153.003 188.752 153.502 188.752C153.662 188.752 154.128 188.854 154.688 188.993C154.911 187.751 155.252 186.076 155.252 186.076C154.182 185.764 153.165 185.491 152.166 185.253C151.356 185.059 150.558 184.888 149.753 184.735C148.541 184.505 147.312 184.317 146.003 184.16C145.92 184.15 145.837 184.14 145.754 184.131C145.724 184.127 145.694 184.124 145.664 184.12C145.401 184.382 145.004 186.861 145.004 187.752C144.004 187.752 143.393 188.102 141.754 187.003C141.004 184.503 144.004 187.253 143.254 183.884Z" fill="#00afff"/>
<path d="M140.004 183.003C139.59 182.589 138.919 182.589 138.505 183.003C138.09 183.417 138.09 184.089 138.505 184.503C138.919 184.917 139.59 184.917 140.004 184.503C140.418 184.089 140.418 183.417 140.004 183.003Z" fill="#00afff"/>
<path d="M106.009 59.2641C110.648 57.0272 112.159 63.5509 107.009 63.7637L106.009 59.2641Z" fill="#00afff"/>
<path d="M166.751 76.2626C166.535 75.7179 166.576 74.9734 166.791 74.4287C166.862 74.2802 166.905 74.1715 167.001 74.0128C167.464 73.241 167.884 72.7584 168.75 72.5129C169.314 72.3532 169.705 72.2974 170.25 72.5129C170.959 72.7934 171.237 73.297 171.5 74.0128C171.769 74.7459 171.803 75.2928 171.5 76.0126C171.151 76.8421 170.616 77.267 169.75 77.5124C169.187 77.6722 168.81 77.6855 168.25 77.5124C167.522 77.2872 167.031 76.9715 166.751 76.2626Z" fill="#00afff"/>
<path d="M190.747 106.76C191.869 106.542 193.001 106.73 193.497 107.76C194.085 108.982 193.041 110.354 191.747 110.759C190.372 111.191 188.565 110.449 188.498 109.01C188.44 107.768 189.528 106.996 190.747 106.76Z" fill="#00afff"/>
<path d="M193.497 117.259C194.825 117.259 196.171 117.933 196.246 119.259C196.325 120.644 194.884 121.508 193.497 121.508C192.109 121.508 190.668 120.644 190.747 119.259C190.823 117.933 192.169 117.259 193.497 117.259Z" fill="#00afff"/>
<path d="M190.997 136.882H193.497H195.747C195.747 136.882 196.209 139.332 195.247 140.007C194.527 140.511 193.497 139.507 193.497 139.507C193.497 139.507 192.208 140.523 191.497 140.007C190.468 139.259 190.997 136.882 190.997 136.882Z" fill="#00afff"/>
<path d="M192.247 146.506C190.789 146.637 189.228 145.721 189.247 144.256C189.266 142.869 190.61 142.007 191.997 142.007C193.384 142.007 194.758 142.869 194.747 144.256C194.736 145.57 193.555 146.389 192.247 146.506Z" fill="#00afff"/>
<path d="M186.498 154.006L188.498 154.88L190.497 155.755C190.497 155.755 189.937 157.861 188.997 158.255C188.111 158.627 187.498 157.005 187.498 157.005C187.498 157.005 185.931 157.574 185.498 156.755C184.987 155.791 186.498 154.006 186.498 154.006Z" fill="#00afff"/>
<path d="M187.248 162.505L187.498 162.005L184.998 159.505L183.748 161.905L184.248 162.005L187.248 162.505Z" fill="#00afff"/>
<path d="M80.7626 68.5133C80.7626 68.3752 80.8745 68.2633 81.0126 68.2633C81.1506 68.2633 81.2625 68.3752 81.2625 68.5133C81.2625 68.6513 81.1506 68.7633 81.0126 68.7633C80.8745 68.7633 80.7626 68.6513 80.7626 68.5133Z" fill="#00afff"/>
<path d="M60.0155 92.2611C59.8775 92.2611 59.7655 92.3731 59.7655 92.5111C59.7655 92.6492 59.8775 92.7611 60.0155 92.7611C60.1536 92.7611 60.2655 92.6492 60.2655 92.5111C60.2655 92.3731 60.1536 92.2611 60.0155 92.2611Z" fill="#00afff"/>
<path d="M88.5115 188.002C90.0411 187.475 91.4361 187.018 92.7609 186.616M92.7609 186.616L93.347 188.252M92.7609 186.616C95.5369 185.774 98.0052 185.177 100.76 184.697M93.347 188.252L94.5107 191.502M93.347 188.252L91.0112 189.252M91.0112 189.252C92.52 191.043 91.6602 191.682 91.0112 191.502C90.3622 191.322 92.7609 192.752 92.7609 192.752M91.0112 189.252L90.0113 189.752M95.0106 186.003L97.0103 191.252M100.76 184.697L101.341 186.753M100.76 184.697C101.641 184.543 103.509 184.268 103.509 184.268M101.341 186.753L102.26 190.002M101.341 186.753L101.26 186.503V186.753L98.5512 187.378M98.5512 187.378L98.0102 187.502C98.0102 187.502 97.2603 188.252 98.2602 188.252C99.26 188.252 98.7601 188.002 98.7601 188.002L98.5512 187.378ZM98.2602 187.752H98.5101M103.509 184.268C103.509 184.268 103.82 185.899 103.971 187.006M103.509 184.268C103.509 184.268 105.533 184.001 106.643 183.875M103.971 187.006C104.05 187.587 104.086 188.024 104.009 188.002C103.787 187.94 103.01 187.878 103.01 187.378C103.01 187.218 103.416 187.097 103.971 187.006ZM103.971 187.006C105.046 186.828 106.675 186.764 106.964 186.754M106.964 186.754C106.993 186.753 107.009 186.753 107.009 186.753L106.643 183.875M106.964 186.754C106.774 185.284 106.643 183.875 106.643 183.875M106.964 186.754C107.186 188.472 107.489 190.272 107.759 190.002C108.259 189.502 110.258 191.252 110.258 191.252M106.643 183.875C107.007 183.834 107.379 183.793 107.759 183.753M112.508 183.253C112.847 183.219 113.18 183.186 113.508 183.155M113.508 183.155C113.508 183.155 113.508 184.697 113.758 185.753C114.008 186.809 115.641 186.673 117.008 186.003M113.508 183.155C114.741 183.037 115.897 182.939 117.008 182.859M117.008 186.003V182.859M117.008 186.003V188.502M117.008 182.859C118.125 182.779 119.197 182.717 120.257 182.671M120.257 182.671C120.257 182.671 120.507 184.753 120.257 185.253C120.101 185.564 119.363 185.585 118.89 185.495M120.257 182.671C121.258 182.628 122.249 182.6 123.257 182.585M118.89 185.495C118.603 185.441 118.413 185.347 118.507 185.253C118.56 185.2 118.7 185.302 118.89 185.495ZM118.89 185.495C119.602 186.223 121.007 188.252 121.007 188.252M123.257 182.585V185.753M123.257 182.585C124.231 182.571 125.223 182.569 126.256 182.578M123.257 185.753V186.503C123.257 187.003 122.007 185.753 122.507 185.753H123.257ZM123.257 185.753H126.256M126.256 185.753V182.578M126.256 185.753V188.252M126.256 182.578C127.06 182.585 127.889 182.599 128.756 182.62M128.756 182.62C130.072 182.651 131.474 182.696 133.005 182.753M128.756 182.62V185.753M128.756 185.753V186.503C128.756 187.253 127.256 185.753 128.006 185.753H128.756ZM128.756 185.753H131.755V182.859C132.049 182.922 131.616 189.329 131.755 189.002C131.895 188.675 134.255 191.252 134.255 191.252M141.504 183.753C142.109 183.793 142.691 183.837 143.254 183.884M143.254 183.884C143.254 183.884 143.254 183.884 143.254 183.884ZM143.254 183.884C143.422 183.898 143.589 183.912 143.754 183.927C143.922 183.942 144.089 183.957 144.254 183.973C144.736 184.019 145.205 184.068 145.664 184.12M143.254 183.884C144.004 187.253 141.004 184.503 141.754 187.003M141.754 187.003C143.393 188.102 144.004 187.752 145.004 187.752M141.754 187.003C137.868 189.008 136.532 184.093 140.754 185.503M145.004 187.752C145.004 186.861 145.401 184.382 145.664 184.12M145.004 187.752C145.004 188.252 145.042 189.336 145.504 189.502M145.664 184.12C145.694 184.124 145.724 184.127 145.754 184.131M145.664 184.12C145.696 184.088 145.726 184.09 145.754 184.131M145.754 184.131C145.837 184.14 145.92 184.15 146.003 184.16M146.003 184.16L144.504 180.503M146.003 184.16C147.312 184.317 148.541 184.505 149.753 184.735M149.753 184.735C149.753 184.735 149.934 186.311 149.253 186.753C148.362 187.33 148.313 186.491 148.003 186.503C147.694 186.514 147.301 187.641 148.003 188.252C148.705 188.864 151.003 188.752 151.003 188.752M149.753 184.735C150.558 184.888 151.356 185.059 152.166 185.253M152.166 185.253C151.117 187.176 151.221 188.549 151.003 191.002M152.166 185.253C153.165 185.491 154.182 185.764 155.252 186.076M155.252 186.076C155.252 186.076 154.911 187.751 154.688 188.993M155.252 186.076C156.199 186.352 157.187 186.66 158.241 187.003M154.688 188.993C154.582 189.592 154.502 190.09 154.502 190.252C154.502 190.752 153.003 188.752 153.502 188.752C153.662 188.752 154.128 188.854 154.688 188.993ZM154.688 188.993C155.882 189.289 157.502 189.752 157.502 189.752M158.241 187.003C158.73 187.161 159.232 187.328 159.752 187.502M158.241 187.003C158.241 187.003 156.502 193.252 157.002 192.502C157.502 191.752 159.002 195.252 159.002 195.252M97.7602 62.0139L100.01 66.7634M102.01 66.0135L100.01 61.5139L100.51 61.2639L104.259 64.5136L104.759 64.2637L103.259 59.5141M111.758 57.2643L112.508 63.0138M120.007 62.0139V57.0143C120.007 56.7644 123.507 61.7639 123.507 61.5139V56.2644M114.258 62.5138C114.258 62.5138 115.758 57.5143 115.758 57.2643C115.758 57.0143 118.507 62.2639 118.507 62.2639M127.756 56.2644V61.7639M130.006 62.0139C130.006 62.0139 130.279 57.2643 130.256 57.0143C130.232 56.7644 133.231 62.0139 133.255 61.7639C133.279 61.5139 133.755 56.7644 133.755 56.7644M139.504 59.2641C137.755 55.2645 133.755 59.3817 137.505 60.264C141.254 61.1463 136.255 65.0136 135.255 61.0139M140.754 58.5142L142.754 58.8891M142.754 58.8891L144.754 59.2641M142.754 58.8891L141.754 64.0137M145.004 65.0136L146.503 59.2641M148.003 60.264L149.878 61.0139M149.878 61.0139L151.753 61.7639M149.878 61.0139L148.003 66.0135M153.502 62.2638C148.753 67.2634 155.252 70.7631 156.502 63.5137M157.752 64.5136L160.002 65.7635M160.002 65.7635L161.751 66.7634M160.002 65.7635L157.002 70.2631M166.251 69.6382L163.251 67.5134L161.751 69.6382M161.751 69.6382L160.501 71.513L163.501 73.5128M161.751 69.6382L164.501 71.513M176.499 78.7623L174.25 76.2626L172.5 78.0124M170.75 79.7622L172.5 78.0124M172.5 78.0124L174.749 80.2622M166.791 74.4287C166.576 74.9734 166.535 75.7179 166.751 76.2626C167.031 76.9715 167.522 77.2872 168.25 77.5124C168.81 77.6855 169.187 77.6722 169.75 77.5124C170.616 77.267 171.151 76.8421 171.5 76.0126C171.803 75.2928 171.769 74.7459 171.5 74.0128C171.237 73.297 170.959 72.7934 170.25 72.5129C169.705 72.2974 169.314 72.3532 168.75 72.5129C167.884 72.7584 167.464 73.241 167.001 74.0128C166.905 74.1715 166.862 74.2802 166.791 74.4287ZM166.791 74.4287C166.779 74.4553 166.765 74.4831 166.751 74.5127M178.249 80.7622L179.749 82.512M179.749 82.512L181.249 84.2619M179.749 82.512L175.749 85.7617M180.499 91.0112L178.249 88.0115L180.249 86.7616M184.248 88.2615L182.248 85.5117L180.249 86.7616M180.249 86.7616L182.248 89.2614M186.498 93.511C187.498 92.2611 186.498 89.7114 183.748 90.2613C180.999 90.8113 181.249 95.5108 184.248 94.5109M183.748 97.0107L186.123 95.8858M186.123 95.8858L188.498 94.7609M186.123 95.8858L187.748 98.7605M185.248 100.26L189.997 97.7606M186.123 102.26C186.123 102.26 190.497 100.26 190.747 100.26C190.997 100.26 187.498 105.51 187.748 105.51C187.998 105.51 192.497 103.26 192.497 103.26M194.997 112.509L189.997 113.009L190.247 116.509M195.497 127.508C195.497 127.508 196.296 126.262 196.246 125.258C196.174 123.796 194.955 123.128 193.497 123.258C192.189 123.375 191.497 123.758 191.497 125.258V127.508H193.747V125.758M191.247 130.758H193.747M193.747 130.758L196.246 129.258M193.747 130.758L196.246 133.007M193.497 136.882H190.997C190.997 136.882 190.468 139.259 191.497 140.007C192.208 140.523 193.497 139.507 193.497 139.507M193.497 136.882H195.747C195.747 136.882 196.209 139.332 195.247 140.007C194.527 140.511 193.497 139.507 193.497 139.507M193.497 136.882V139.507M187.998 147.256L192.997 149.506C192.997 149.506 188.061 149.35 187.998 149.506C187.934 149.662 191.747 153.006 191.747 153.006L186.498 151.256M188.498 154.88L186.498 154.006C186.498 154.006 184.987 155.791 185.498 156.755C185.931 157.574 187.498 157.005 187.498 157.005M188.498 154.88L190.497 155.755C190.497 155.755 189.937 157.861 188.997 158.255C188.111 158.627 187.498 157.005 187.498 157.005M188.498 154.88L187.498 157.005M183.748 161.905L184.248 162.005L187.248 162.505L187.498 162.005L184.998 159.505M183.748 161.905L181.748 161.505M183.748 161.905L184.998 159.505M183.748 158.255L184.998 159.505M180.499 163.755L182.748 165.005M182.748 165.005H185.998M182.748 165.005L184.248 168.504M78.5129 73.0129C79.8327 71.8771 81.0016 70.9004 82.1159 70.0132M82.1159 70.0132L83.564 71.888M82.1159 70.0132C83.6023 68.8296 84.9915 67.8054 86.5118 66.7754M80.2627 71.763C80.2627 71.763 81.1911 72.3125 81.8053 72.8417M81.8053 72.8417C82.272 73.2437 82.5572 73.6341 82.1159 73.7628C81.796 73.8561 81.5871 73.8386 81.2625 73.7628C80.7476 73.6425 81.1813 73.2419 81.8053 72.8417ZM81.8053 72.8417C82.5494 72.3645 83.564 71.888 83.564 71.888M83.564 71.888L85.012 73.7628C89.0268 73.5633 87.7616 76.5126 85.012 76.2626M86.5118 66.7754C87.9215 65.8203 89.4439 64.8603 91.2611 63.7637M86.5118 66.7754L87.2703 68.0133M87.2703 68.0133L88.2616 69.7632M87.2703 68.0133C87.2703 68.0133 85.629 68.8317 85.1741 69.7632C85.0131 70.0927 85.0007 70.4364 85.262 70.7631C86.2618 72.013 88.2616 69.7632 88.2616 69.7632M88.2616 69.7632L89.2614 71.263M89.5114 64.2637C88.2893 63.3852 88.2178 62.8926 89.5114 62.0139M90.2613 64.7636L90.7612 65.7635C87.7616 67.2634 89.5114 69.0132 92.011 67.2634C92.011 67.2634 92.3195 67.2251 92.511 67.2634C93.4682 67.4549 92.7609 69.7632 92.7609 69.7632C88.0116 70.5131 91.2611 68.7633 94.2607 70.0132M59.2656 98.5106C59.7033 97.3538 59.8557 96.9312 60.2655 96.0108M64.5149 88.7615C64.3081 89.0397 63.7094 89.7355 63.515 90.0113M74.0136 76.7625C73.8209 76.9336 73.1354 77.5999 72.956 77.7624M60.2655 96.0108C62.1502 96.043 62.4051 96.4929 63.2651 97.5107C63.2651 97.6269 61.2653 99.0105 61.2653 98.2606C61.2653 97.5107 65.7647 97.5107 65.7647 97.5107M60.2655 96.0108C60.67 95.102 61.119 94.1865 61.6248 93.261M63.2651 96.0108C63.765 95.5108 63.9725 95.222 64.0149 94.5109M61.6248 93.261L66.7646 95.7608M61.6248 93.261C62.2826 92.0574 62.6381 91.2557 63.515 90.0113M69.0143 81.9405L73.5136 85.7617M69.0143 81.9405C68.6117 82.4606 68.203 83.0216 67.7644 83.6507M69.0143 81.9405C70.1877 80.4243 71.3077 79.2558 72.956 77.7624M67.7644 83.6507C67.6822 83.7686 67.5989 83.889 67.5145 84.0119L67.0145 84.7618M67.7644 83.6507L70.3949 85.7617M72.2638 87.2616L70.3949 85.7617M70.3949 85.7617C70.053 88.0973 68.2644 89.0114 66.7646 89.2614C66.7646 89.2614 68.6745 86.6867 67.5145 86.0117C66.8395 85.6189 66.3169 85.7094 65.7647 86.2617C65.2125 86.8139 65.177 87.4972 65.7647 88.0115C66.279 88.4615 67.5145 88.0115 67.5145 88.0115M72.956 77.7624L74.5135 79.2964M76.7632 81.5121L74.5135 79.2964M74.5135 79.2964L73.2637 80.6184M73.2637 80.6184C73.2637 80.6184 72.0138 81.7621 72.0138 81.9405C72.0138 82.1189 72.909 82.2758 73.2637 81.9405C73.6388 81.5858 73.2637 80.6184 73.2637 80.6184ZM63.515 90.0113C63.515 90.0113 66.1765 90.6293 65.7647 91.5112C65.5239 92.027 64.6587 91.6002 64.2649 92.0112C63.1842 93.1389 68.2644 92.0112 68.2644 92.0112M57.5159 103.76C57.4467 103.968 56.8786 104.924 56.8115 105.129M54.0164 137.257C53.9762 136.92 53.9374 136.587 53.8999 136.257M53.5664 133.007C53.536 132.67 53.5073 132.337 53.4804 132.008M53.5664 133.007C53.6608 134.052 53.7723 135.133 53.8999 136.257M53.5664 133.007L56.766 132.861M59.2656 132.757L56.766 132.861M53.4804 132.008L52.0166 134.257M53.4804 132.008C53.4414 131.53 53.4062 131.06 53.3749 130.597M53.3689 130.508L50.7668 132.757M53.3689 130.508C53.3709 130.537 53.3729 130.567 53.3749 130.597M53.3689 130.508C53.2763 129.12 53.2185 127.793 53.1976 126.508M53.8999 136.257L53.8439 135.757C56.4134 135.947 57.1056 135.575 56.9076 133.757M56.766 132.861C56.8303 133.193 56.8785 133.491 56.9076 133.757M59.0157 136.007L56.9076 133.757M53.3749 130.597H58.7657M53.1997 124.258H56.516M53.1997 124.258C53.1857 124.996 53.1851 125.745 53.1976 126.508M53.1997 124.258C53.2142 123.498 53.2429 122.75 53.2864 122.008M58.7657 124.258H56.516M56.516 124.258C56.6506 124.317 59.0101 127.035 57.7658 128.008C56.9969 128.609 56.266 128.008 56.266 128.008C56.266 128.008 56.2712 128.848 55.2662 128.758C54.2612 128.667 54.5163 126.508 54.5163 126.508H53.1976M53.2864 122.008H58.7657M53.2864 122.008C53.2962 121.841 53.3067 121.675 53.318 121.508M53.318 121.508L50.2669 123.758M53.318 121.508C53.4325 119.822 53.6246 118.168 53.8999 116.493M58.7657 119.759L51.5167 119.259C50.7693 119.332 50.4356 116.12 53.8439 114.259M53.8999 116.493H55.4579M53.8999 116.493C54.0418 115.63 54.0794 115.14 54.2663 114.259M55.4579 116.493L57.0159 116.509C57.0159 116.509 57.0903 117.49 56.516 117.509C55.9298 117.528 55.4579 116.493 55.4579 116.493ZM54.2663 114.259L59.7655 114.759M54.2663 114.259C54.5627 112.862 55.0431 111.055 55.4579 109.568M55.4579 109.568L57.2368 109.967M55.4579 109.568C55.6231 108.975 55.8314 107.873 56.0161 107.26M60.7654 110.759L59.0157 110.367M59.0157 110.367C60.5154 113.509 55.7661 113.759 56.516 110.759M59.0157 110.367L57.2368 109.967M57.2368 109.967C56.516 106.76 60.7654 107.26 60.2655 109.26M56.8115 105.129L61.7653 107.01M56.8115 105.129C56.8115 105.129 55.1251 104.336 54.2663 105.129C53.7108 105.641 53.1148 106.519 53.2665 107.26C53.5021 108.411 56.0161 107.26 56.0161 107.26M56.8115 105.129C56.5158 106.031 56.2731 106.406 56.0161 107.26M64.5149 165.005C64.2361 164.579 63.9677 164.163 63.7091 163.755M55.7661 144.506C55.8498 144.826 55.933 145.142 56.0161 145.452M63.7091 163.755L65.9867 162.505M63.7091 163.755C63.3535 163.194 63.0163 162.647 62.6956 162.113M68.2644 161.255L65.9867 162.505M66.7646 167.254C66.7646 167.254 65.995 167.572 65.5147 167.004C64.441 165.735 67.8612 162.726 68.5143 164.255C68.5558 164.352 68.7643 165.005 68.5143 165.255C67.4743 166.295 65.9867 162.505 65.9867 162.505M62.6956 162.113L67.2645 159.505M62.6956 162.113C61.9459 160.863 61.4138 159.926 60.8199 158.755M65.0148 155.755C65.0148 155.755 63.8898 160.95 63.2651 159.505C62.9551 158.788 63.6701 158.331 63.1427 157.755C62.4148 156.96 60.8199 158.755 60.8199 158.755M60.8199 158.755C59.9829 157.105 59.1902 155.27 58.5233 153.506M58.5233 153.506L60.0155 152.876M58.5233 153.506C58.5011 153.447 58.5455 153.565 58.5233 153.506ZM58.5233 153.506C58.5233 153.506 57.8767 155.136 57.0159 155.255C56.2795 155.357 55.9641 155.099 55.5161 154.505C54.7721 153.52 55.4483 152.056 56.516 151.649C59.5156 150.506 62.6956 149.256 62.6956 149.256M58.5233 153.506C57.8596 151.732 57.2536 149.849 56.6533 147.756M63.2651 151.506L60.0155 152.876M60.0155 152.876C60.0155 152.876 61.2653 156.505 61.5153 156.255C61.7653 156.005 64.015 153.506 64.015 153.506M56.0161 145.452C56.2293 146.249 56.4409 147.016 56.6533 147.756M56.0161 145.452L59.5156 144.615M61.0154 144.256L59.5156 144.615M56.6533 147.756C57.7227 146.984 59.0157 147.006 59.7655 147.756C60.5154 148.506 58.4498 148.854 59.2656 148.006C60.0815 147.158 60.6616 146.272 59.5156 144.615M138.505 183.003C138.919 182.589 139.59 182.589 140.004 183.003C140.418 183.417 140.418 184.089 140.004 184.503C139.59 184.917 138.919 184.917 138.505 184.503C138.09 184.089 138.09 183.417 138.505 183.003ZM106.009 59.2641C110.648 57.0272 112.159 63.5509 107.009 63.7637L106.009 59.2641ZM193.497 107.76C193.001 106.73 191.869 106.542 190.747 106.76C189.528 106.996 188.44 107.768 188.498 109.01C188.565 110.449 190.372 111.191 191.747 110.759C193.041 110.354 194.085 108.982 193.497 107.76ZM196.246 119.259C196.171 117.933 194.825 117.259 193.497 117.259C192.169 117.259 190.823 117.933 190.747 119.259C190.668 120.644 192.109 121.508 193.497 121.508C194.884 121.508 196.325 120.644 196.246 119.259ZM189.247 144.256C189.228 145.721 190.789 146.637 192.247 146.506C193.555 146.389 194.736 145.57 194.747 144.256C194.758 142.869 193.384 142.007 191.997 142.007C190.61 142.007 189.266 142.869 189.247 144.256ZM80.7626 68.5133C80.7626 68.3752 80.8745 68.2633 81.0126 68.2633C81.1506 68.2633 81.2625 68.3752 81.2625 68.5133C81.2625 68.6513 81.1506 68.7633 81.0126 68.7633C80.8745 68.7633 80.7626 68.6513 80.7626 68.5133ZM60.0155 92.2611C59.8775 92.2611 59.7655 92.3731 59.7655 92.5111C59.7655 92.6492 59.8775 92.7611 60.0155 92.7611C60.1536 92.7611 60.2655 92.6492 60.2655 92.5111C60.2655 92.3731 60.1536 92.2611 60.0155 92.2611Z" stroke="black" stroke-width="1.25"/>
<path d="M125.737 156.239C130.736 151.24 136.985 153.739 155.233 155.739M126.987 157.739C130.186 153.683 135.986 154.739 154.483 156.989M127.487 158.989C130.88 155.533 136.486 155.739 153.983 158.239M127.987 160.489C130.772 156.676 137.235 157.739 153.983 159.489M128.487 161.489C132.775 158.624 137.485 159.489 154.733 160.739M123.737 156.239C117.688 150.411 110.489 154.239 92.2417 155.739M93.2416 156.989C112.489 154.739 120.021 153.688 122.737 157.239M93.9915 158.489C111.989 156.239 117.988 155.739 121.988 158.239M121.238 159.739C115.239 155.739 102.49 159.739 94.2414 159.739M120.738 161.239C115.977 157.789 106.333 160.819 94.2414 160.989M114.508 60.764L117.507 60.514M56.0161 126.258L56.266 128.008M85.012 69.7632H88.0116" stroke="black" stroke-width="0.75"/>
<path d="M120.129 143.527C120.4 143.68 120.649 143.803 120.947 143.894C121.149 143.955 121.354 144.009 121.556 144.07C121.593 144.082 121.626 144.095 121.665 144.095M117.12 143.443C117.576 143.443 118.032 143.464 118.488 143.464M114.364 144.032C114.964 143.983 115.417 143.485 116.026 143.485M111.84 144.221C112.141 144.221 112.436 144.199 112.735 144.163C112.871 144.146 113.066 144.155 113.186 144.095M108.81 144.516C108.954 144.577 109.152 144.557 109.306 144.558C109.495 144.559 109.684 144.558 109.874 144.558H110.388M106.222 144.494H107.085M103.992 146.472H107.527M108.831 146.641C109.086 146.597 109.315 146.489 109.553 146.393C109.812 146.288 110.088 146.254 110.359 146.192C110.486 146.162 110.595 146.157 110.725 146.157M118.425 145.378C118.49 145.575 118.844 145.567 118.997 145.578C119.431 145.61 119.854 145.661 120.283 145.736C120.615 145.794 120.972 145.842 121.286 145.967M115.101 145.504H116.552M112.218 145.967H113.691M119.046 147.524C119.102 147.648 119.38 147.813 119.506 147.878C119.653 147.954 119.811 148.025 119.963 148.09C120.137 148.164 120.311 148.225 120.495 148.266C120.602 148.29 120.743 148.274 120.832 148.333M115.709 147.524H117.596M112.607 148.199C112.978 148.199 113.304 147.916 113.641 147.775C113.819 147.701 113.977 147.619 114.158 147.558M109.439 148.536C109.674 148.536 109.87 148.509 110.094 148.442C110.338 148.369 110.578 148.368 110.821 148.315C111.001 148.275 111.171 148.276 111.327 148.199M102.765 148.603H104.855M106.405 148.502H108.158M101.214 150.76H103.911M105.192 150.659C105.735 150.63 106.271 150.523 106.813 150.483C106.988 150.47 107.282 150.508 107.45 150.423M109.001 150.154C109.621 150.148 110.29 150.135 110.888 149.985M112.338 149.648C112.891 149.633 113.436 149.581 113.989 149.581M115.405 149.378H116.888M118.405 149.581C118.944 149.911 119.55 150.005 120.132 150.221C120.236 150.26 120.328 150.258 120.394 150.356M129.468 150.056C129.957 149.822 130.418 149.568 130.86 149.261M132.69 149.141C133.141 149.114 133.59 149.102 134.042 149.102M135.355 149.38C135.977 149.38 136.605 149.477 137.224 149.539M138.537 149.897C139.039 149.987 139.498 150.193 140.019 150.213C140.188 150.22 140.357 150.215 140.525 150.215M142.077 150.454C142.74 150.514 143.399 150.772 144.065 150.772M145.418 150.931H147.446M144.463 148.624H146.85M141.241 148.505H143.071M138.059 147.709C138.174 148.031 138.66 148.099 138.939 148.162C139.076 148.194 139.234 148.213 139.363 148.275C139.407 148.296 139.44 148.34 139.491 148.346C139.602 148.357 139.692 148.386 139.809 148.386M135.076 147.192C135.146 147.285 135.423 147.227 135.527 147.241C135.739 147.269 135.928 147.428 136.137 147.484C136.287 147.524 136.433 147.55 136.588 147.55M131.775 147.272H133.565M128.792 147.988C129.027 147.988 129.326 148.034 129.548 147.939C129.664 147.889 129.74 147.776 129.857 147.727C129.999 147.667 130.133 147.637 130.263 147.55M128.434 146.118C129.005 145.662 129.757 145.51 130.46 145.442C130.692 145.42 130.956 145.437 131.178 145.363M132.809 145.402C133.257 145.402 133.683 145.387 134.115 145.519C134.273 145.568 134.432 145.641 134.599 145.641M135.832 145.641C136.235 145.695 136.603 145.919 137.016 145.919H137.542M138.855 146.198C138.599 146.198 139.372 146.227 139.615 146.308C139.758 146.356 139.892 146.374 140.044 146.388C140.274 146.409 140.494 146.437 140.724 146.437M142.156 146.715H144.98M128.116 144.09C128.414 144.111 128.762 143.782 129.055 143.692C129.314 143.612 129.57 143.549 129.826 143.453M131.019 143.254H132.292M133.724 143.413C134.318 143.52 134.983 143.652 135.593 143.652M136.826 144.09H137.821M139.412 144.368C139.58 144.368 141.043 144.323 141.043 144.567M142.395 145.005H143.747" stroke="black" stroke-width="0.5" stroke-linecap="round"/>
</svg>
