<svg width="501" height="501" viewBox="0 0 501 501" fill="none" xmlns="http://www.w3.org/2000/svg">
<rect width="500" height="500" transform="translate(0.494476 0.477417)" fill="black"/>
<path d="M158.378 82.9771C176.647 96.1599 181.544 104.974 181.358 125.937M228.494 170.638C226.066 146.037 218.038 135.442 190.196 123.034M234.386 170.638C257.879 189.724 266.118 200.729 267.971 221.145C290.46 236.121 298.628 248.2 303.912 277.457" stroke="url(#paint0_linear_2_7)" stroke-width="3"/>
<path d="M216.12 313.454C190.286 320.93 181.76 310.345 167.216 275.138M216.12 313.454L234.033 365.831C255.65 378.328 271.317 373.553 292.953 369.895C316.949 349.415 318.237 339.938 307.448 324.484M216.12 313.454C225.157 282.148 237.799 253.541 256.186 233.329M332.783 203.732C299.738 200.798 274.966 212.686 256.186 233.329M140.957 204.312C140.675 177.733 149.577 151.054 172.507 133.23M276.219 109.104C226.541 108.14 193.608 116.827 172.507 133.23M103.582 167.019C102.674 136.441 112.001 112.211 134.221 95.2071M230.851 70.2079C188.264 69.3107 155.355 79.0343 134.221 95.2071M172.507 250.768L170.752 268.171L167.216 275.138M172.507 250.768L125.463 181.671M172.507 250.768C182.738 220.541 195.182 196.813 213.162 181.077M310.381 157.881C266.327 153.967 235.533 161.499 213.162 181.077M150.129 296.618L110.653 286.749L81.1922 244.369V209.537M150.129 296.618L167.216 275.138M150.129 296.618C118.312 351.769 125.383 369.185 166.038 417.37M81.1922 209.537L70.5865 191.274M81.1922 209.537C95.4738 191.437 104.891 184.673 125.463 181.671M70.5865 191.274L39.9478 215.923L64.6944 329.128C64.6944 329.128 89.4411 337.836 92.9763 343.061C96.6304 348.462 57.6243 392.987 57.6243 392.987L54.089 396.626M70.5865 191.274L104.171 164.255L118.312 171.222L125.463 181.671M307.448 324.484C307.448 324.484 282.478 336.973 288.004 321.581C293.529 306.189 295.258 296.496 296.842 278.041M307.448 324.484C322.583 315.439 328.21 307.076 332.783 296.618M296.842 278.041C284.486 259.023 277.42 249.689 256.186 233.329M296.842 278.041L396.5 268M256.186 233.329C246.611 206.66 236.394 195.291 213.162 181.077M396.5 268C372.343 375.98 323.945 448.805 240.867 443M396.5 268C396.5 268 396.194 240.305 395.239 236.822C394.285 233.339 364.011 195.604 364.011 195.604M213.162 181.077C205.034 154.444 195.17 144.798 172.507 133.23M172.507 133.23C165.284 111.859 155.928 105.205 134.221 95.2071M240.867 443C229.791 443.202 209 443 209 443C209 443 208.832 468.568 197.855 492.45M240.867 443V495.743M54.089 396.626C22.3113 353.616 3.60516 300.518 4.00632 244.369C4.96368 110.375 117.614 5.95882 252.652 4.02624C389.632 2.06586 495.022 110.188 495.994 246.111C496.972 383.003 386.484 497.949 248.527 495.975C245.964 495.938 243.411 495.861 240.867 495.743M54.089 396.626C88.9416 443.797 139.518 478.834 197.855 492.45M240.867 495.743C226.16 495.061 211.786 495.701 197.855 492.45" stroke="url(#paint1_radial_2_7)" stroke-width="7.5"/>
<path d="M309.215 109.099L308.037 85.8776C298.52 93.2268 293.887 97.7272 289.771 100.487L289.469 100.69C284.363 104.114 281.895 105.768 277.987 110.26C270.917 118.388 276.655 132.465 286.236 135.223C293.71 137.375 299.906 134.561 305.091 128.837C310.409 122.966 309.215 109.099 309.215 109.099Z" fill="#01FFCC"/>
<path d="M260.9 67.8809L257.365 37.6929C257.365 37.6929 239.261 59.0237 233.208 69.0293C232.344 70.4567 231.726 71.6536 231.44 72.5252C228.967 80.0733 233.863 84.9858 241.457 87.6192C247.932 89.8647 254.066 88.6822 258.544 83.5554C262.64 78.8648 260.9 67.8809 260.9 67.8809Z" fill="#01FFCC"/>
<path d="M345.157 162.842L341.622 135.223C341.622 135.223 337.388 137.899 332.194 141.691C325.634 146.481 317.543 153.054 314.518 158.27C314.017 159.134 313.66 159.97 313.478 160.767C313.387 161.164 313.34 161.552 313.34 161.928C313.34 170.102 318.178 178.602 326.302 180.258C343.389 183.741 345.157 162.842 345.157 162.842Z" fill="#01FFCC"/>
<path d="M332.194 208.952C332.194 229.271 350.46 239.72 362.833 224.046L361.239 188.052V180.505L338.676 202.957L332.194 208.952Z" fill="#01FFCC"/>
<path d="M361.239 180.505V188.052M361.239 180.505L338.676 202.957M361.239 180.505C357.79 173.418 344.96 162.905 345.157 162.842M361.239 188.052L362.833 224.046C350.46 239.72 332.194 229.271 332.194 208.952L338.676 202.957M361.239 188.052L366.957 197.341M330.427 202.566C331.824 202.028 334.094 202.289 338.676 202.957M345.157 162.842L341.622 135.223C341.622 135.223 337.388 137.899 332.194 141.691M345.157 162.842C345.157 162.842 343.389 183.741 326.302 180.258C318.178 178.602 313.34 170.102 313.34 161.928C313.34 161.552 313.387 161.164 313.478 160.767M314.518 158.27C313.708 156.199 309.215 156.123 300.966 156.123M314.518 158.27C314.017 159.134 313.66 159.97 313.478 160.767M314.518 158.27C317.543 153.054 325.634 146.481 332.194 141.691M313.478 160.767L300.966 158.445M332.194 141.691C324.773 124.854 319.586 118.129 309.215 109.099M309.215 109.099L308.037 85.8776C298.52 93.2268 293.887 97.7272 289.771 100.487M309.215 109.099C309.215 109.099 310.409 122.966 305.091 128.837C299.906 134.561 293.71 137.375 286.236 135.223C276.655 132.465 270.917 118.388 277.987 110.26M277.987 110.26C281.895 105.768 284.363 104.114 289.469 100.69M277.987 110.26C279.102 108.491 277.866 107.028 275.041 107.938M289.771 100.487C281.166 81.8143 274.814 74.7423 260.9 67.8809M289.771 100.487L289.469 100.69M289.771 100.487C289.67 100.556 289.569 100.623 289.469 100.69M260.9 67.8809L257.365 37.6929C257.365 37.6929 239.261 59.0237 233.208 69.0293M260.9 67.8809C260.9 67.8809 262.64 78.8648 258.544 83.5554C254.066 88.6822 247.932 89.8647 241.457 87.6192C233.863 84.9858 228.967 80.0733 231.44 72.5252C231.726 71.6536 232.344 70.4567 233.208 69.0293M233.208 69.0293C229.897 68.5505 227.245 68.6455 222.013 69.042" stroke="url(#paint2_linear_2_7)" stroke-width="5"/>
<path d="M208.461 459.175L205.515 473.689C205.511 475.534 222.289 477.908 223.191 469.044C224.091 460.206 208.61 457.657 208.461 459.175Z" fill="url(#paint3_radial_2_7)" stroke="url(#paint4_radial_2_7)" stroke-width="5"/>
<defs>
<linearGradient id="paint0_linear_2_7" x1="132.5" y1="101.5" x2="301" y2="280.5" gradientUnits="userSpaceOnUse">
<stop offset="1" stop-color="#00FFF0"/>
</linearGradient>
<radialGradient id="paint1_radial_2_7" cx="0" cy="0" r="1" gradientUnits="userSpaceOnUse" gradientTransform="translate(250 250) rotate(90) scale(246)">
<stop stop-color="#00FF85"/>
<stop offset="0.65" stop-color="#00FFBF"/>
<stop offset="1" stop-color="#00FFF0"/>
</radialGradient>
<linearGradient id="paint2_linear_2_7" x1="367.547" y1="134.654" x2="230.793" y2="134.654" gradientUnits="userSpaceOnUse">
<stop offset="0.065" stop-color="#01FFB4"/>
<stop offset="0.45" stop-color="#01FFBA"/>
<stop offset="0.84" stop-color="#01FFCB"/>
</linearGradient>
<radialGradient id="paint3_radial_2_7" cx="0" cy="0" r="1" gradientUnits="userSpaceOnUse" gradientTransform="translate(214.372 467.097) rotate(90) scale(8.33283 8.85698)">
<stop stop-color="#00FFBF"/>
<stop offset="1" stop-color="#00FFF0"/>
</radialGradient>
<radialGradient id="paint4_radial_2_7" cx="0" cy="0" r="1" gradientUnits="userSpaceOnUse" gradientTransform="translate(214.372 467.097) rotate(90) scale(8.33283 8.85698)">
<stop stop-color="#00FF85"/>
<stop offset="0.65" stop-color="#00FFBF"/>
<stop offset="1" stop-color="#00FFF0"/>
</radialGradient>
</defs>
</svg>
